<svg width="98" height="134" viewBox="0 0 98 134" fill="none" xmlns="http://www.w3.org/2000/svg">
<rect x="24" width="50" height="31" rx="8" fill="white"/>
<path d="M47.228 16.996H45.436V14.322H43.84V12.894H45.436V12.25H43.84V11.424H43.084L43.014 14.714C43.672 14.672 44.302 14.63 44.862 14.56V15.988C43.168 16.198 41.18 16.254 39.402 16.254H36.546V14.798H38.03L37.96 11.424H36.854V9.982H44.246V10.822H45.436V9.492H47.228V16.996ZM47.452 19.614C47.452 21.98 44.624 22.218 42.818 22.218C41.012 22.218 38.184 21.98 38.184 19.614C38.184 17.122 40.942 17.01 42.818 17.01C44.694 17.01 47.452 17.122 47.452 19.614ZM43.672 18.452H41.964C40.508 18.508 39.976 18.956 39.976 19.614C39.976 20.272 40.508 20.72 41.964 20.776C42.216 20.79 42.524 20.79 42.818 20.79C43.112 20.79 43.406 20.79 43.672 20.776C45.128 20.72 45.66 20.272 45.66 19.614C45.66 18.956 45.128 18.508 43.672 18.452ZM41.236 14.784L41.306 11.424H39.738L39.794 14.798C40.256 14.798 40.746 14.798 41.236 14.784ZM60.7738 17.304H48.7618V15.848H53.8298V14.784C51.4218 14.616 50.1758 13.454 50.1758 12.082C50.1758 10.64 51.3518 9.436 53.9978 9.366H55.5378C58.1838 9.436 59.3598 10.64 59.3598 12.082C59.3598 13.454 58.0998 14.616 55.7058 14.784V15.848H60.7738V17.304ZM59.6958 21.868H50.2598V18.046H52.0798V20.412H59.6958V21.868ZM57.5118 12.082C57.5118 10.822 55.7058 10.808 54.7678 10.808C53.8298 10.808 52.0238 10.822 52.0238 12.082C52.0238 13.356 53.8298 13.356 54.7678 13.356C55.7058 13.356 57.5118 13.356 57.5118 12.082Z" fill="#222222"/>
<path d="M49.3729 38.4379C48.9913 39.1208 48.0087 39.1208 47.6271 38.4379L39.8314 24.4878C39.4589 23.8213 39.9408 23 40.7044 23L56.2956 23C57.0592 23 57.5411 23.8213 57.1686 24.4878L49.3729 38.4379Z" fill="white"/>
<path d="M32.5222 54.2004C19.0245 49.8409 16.6703 59.4516 16.6703 64.0462C4.78134 82.4252 -7.10747 123.122 48.3744 125.091C103.856 123.122 93.9486 82.4252 82.0597 64.0462C82.0597 59.4516 80.7385 49.8409 66.2077 54.2003C59.676 52.253 53.5929 51.5761 48.3742 51.5911C40.9273 51.6125 35.2406 53.0426 32.5222 54.2004Z" fill="#D0E7B1" stroke="#201F1F" stroke-width="2" stroke-linecap="round" stroke-linejoin="round"/>
<path d="M77.9548 94.4659C77.9548 99.6938 73.7167 103.932 68.4889 103.932C63.261 103.932 59.0229 99.6938 59.0229 94.4659C59.0229 89.2381 63.261 85 68.4889 85C73.7167 85 77.9548 89.2381 77.9548 94.4659Z" fill="#B0CA76"/>
<path d="M29.5113 103.932C34.7392 103.932 38.9772 99.6938 38.9772 94.4659C38.9772 89.238 34.7392 85 29.5113 85C24.2834 85 20.0454 89.238 20.0454 94.4659C20.0454 99.6938 24.2834 103.932 29.5113 103.932Z" fill="#B0CA76"/>
<path d="M35.6362 88.3409L40.0908 90.5682" stroke="#201F1F" stroke-width="2" stroke-linecap="round" stroke-linejoin="round"/>
<path d="M35.6362 96.1363L40.0908 93.9091" stroke="#201F1F" stroke-width="2" stroke-linecap="round" stroke-linejoin="round"/>
<path d="M62.3637 88.3409L57.9092 90.5682" stroke="#201F1F" stroke-width="2" stroke-linecap="round" stroke-linejoin="round"/>
<path d="M62.3637 96.1363L57.9092 93.9091" stroke="#201F1F" stroke-width="2" stroke-linecap="round" stroke-linejoin="round"/>
<path d="M45.4408 98.1915C38.4182 99.4601 37.9372 93.389 40.1497 90.7613C41.1117 89.553 44.1902 87.2273 49.0002 87.2273C53.9065 87.2273 56.8888 89.553 57.8508 90.7613C60.0633 93.389 59.5822 99.4601 52.5597 98.1915C51.9505 98.1008 50.3856 97.5028 49.0002 95.8355C47.6149 97.5028 46.05 98.1008 45.4408 98.1915Z" fill="white" stroke="#201F1F" stroke-width="2" stroke-linecap="round" stroke-linejoin="round"/>
<path d="M32.2954 80.4319C33.409 79.3182 35.6363 78.2046 38.9772 79.3182" stroke="#4D7233" stroke-width="2" stroke-linecap="round"/>
<path d="M65.7043 80.4319C64.5906 79.3182 62.3634 78.2046 59.0225 79.3182" stroke="#4D7233" stroke-width="2" stroke-linecap="round"/>
</svg>
