<svg width="98" height="134" viewBox="0 0 98 134" fill="none" xmlns="http://www.w3.org/2000/svg">
<rect x="24" width="50" height="31" rx="8" fill="white"/>
<path d="M47.718 12.824L46.892 14.126C45.016 13.762 43.14 12.978 42.258 11.83C41.376 12.978 39.5 13.776 37.624 14.126L36.798 12.824C39.178 12.39 41.348 11.214 41.348 9.856V9.548H43.168V9.856C43.168 11.214 45.338 12.39 47.718 12.824ZM48.264 15.932H36.252V14.532H48.264V15.932ZM47.046 21.938H37.75V18.634H44.974V18.032H37.75V16.66H46.766V19.922H39.542V20.552H47.046V21.938ZM59.2758 21.938H50.2598V17.654H59.2758V21.938ZM57.4838 20.482V19.096H52.0518V20.482H57.4838ZM60.7738 16.786H48.7618V15.33H60.7738V16.786ZM59.8078 14.56H49.7278V13.104H51.5758C51.5618 12.474 51.5198 11.9 51.5058 11.27H50.0078V9.828H59.5278V11.27H58.0298L57.9738 13.104H59.8078V14.56ZM56.1958 13.104L56.2378 11.27H53.2978L53.3538 13.104H56.1958Z" fill="#222222"/>
<path d="M49.3729 38.4379C48.9913 39.1208 48.0087 39.1208 47.6271 38.4379L39.8314 24.4878C39.4589 23.8213 39.9408 23 40.7044 23L56.2956 23C57.0592 23 57.5411 23.8213 57.1686 24.4878L49.3729 38.4379Z" fill="white"/>
<path d="M32.5222 54.2004C19.0245 49.8409 16.6703 59.4516 16.6703 64.0462C4.78134 82.4252 -7.10747 123.122 48.3744 125.091C103.856 123.122 93.9486 82.4252 82.0597 64.0462C82.0597 59.4516 80.7385 49.8409 66.2077 54.2003C59.676 52.253 53.5929 51.5761 48.3742 51.5911C40.9273 51.6125 35.2406 53.0426 32.5222 54.2004Z" fill="#E1EDF7" stroke="#201F1F" stroke-width="2" stroke-linecap="round" stroke-linejoin="round"/>
<path d="M46.2158 109.945C46.9582 109.609 49.1113 109.139 51.784 109.945" stroke="#201F1F" stroke-width="1.5" stroke-linecap="round" stroke-linejoin="round"/>
<path d="M36.7501 85.0001C38.5952 85.0001 40.091 83.5043 40.091 81.6591C40.091 79.814 38.5952 78.3182 36.7501 78.3182C34.905 78.3182 33.4092 79.814 33.4092 81.6591C33.4092 83.5043 34.905 85.0001 36.7501 85.0001Z" fill="#1467B1"/>
<path d="M77.9543 94.4659C77.9543 99.6938 73.7162 103.932 68.4884 103.932C63.2605 103.932 59.0225 99.6938 59.0225 94.4659C59.0225 89.2381 63.2605 85 68.4884 85C73.7162 85 77.9543 89.2381 77.9543 94.4659Z" fill="#7BC2E2"/>
<path d="M29.5118 103.932C34.7397 103.932 38.9777 99.6938 38.9777 94.4659C38.9777 89.238 34.7397 85 29.5118 85C24.2839 85 20.0459 89.238 20.0459 94.4659C20.0459 99.6938 24.2839 103.932 29.5118 103.932Z" fill="#7BC2E2"/>
<path d="M61.2501 85.0001C63.0952 85.0001 64.591 83.5043 64.591 81.6591C64.591 79.814 63.0952 78.3182 61.2501 78.3182C59.405 78.3182 57.9092 79.814 57.9092 81.6591C57.9092 83.5043 59.405 85.0001 61.2501 85.0001Z" fill="#1467B1"/>
<path d="M35.6367 88.3409L40.0913 90.5682" stroke="#201F1F" stroke-width="2" stroke-linecap="round" stroke-linejoin="round"/>
<path d="M35.6367 96.1363L40.0913 93.9091" stroke="#201F1F" stroke-width="2" stroke-linecap="round" stroke-linejoin="round"/>
<path d="M62.3637 88.3409L57.9092 90.5682" stroke="#201F1F" stroke-width="2" stroke-linecap="round" stroke-linejoin="round"/>
<path d="M62.3637 96.1363L57.9092 93.9091" stroke="#201F1F" stroke-width="2" stroke-linecap="round" stroke-linejoin="round"/>
<path d="M45.4408 98.1915C38.4182 99.4601 37.9372 93.389 40.1497 90.7613C41.1117 89.553 44.1902 87.2273 49.0002 87.2273C53.9065 87.2273 56.8888 89.553 57.8508 90.7613C60.0633 93.389 59.5822 99.4601 52.5597 98.1915C51.9505 98.1008 50.3856 97.5028 49.0002 95.8355C47.6149 97.5028 46.05 98.1008 45.4408 98.1915Z" fill="white" stroke="#201F1F" stroke-width="2" stroke-linecap="round" stroke-linejoin="round"/>
<path d="M63.6072 80.7568C63.6072 81.3718 63.1085 81.8705 62.4935 81.8705C61.8783 81.8705 61.3799 81.3718 61.3799 80.7568C61.3799 80.1417 61.8783 79.6432 62.4935 79.6432C63.1085 79.6432 63.6072 80.1417 63.6072 80.7568Z" fill="white"/>
<path d="M61.4731 82.55C61.4731 82.9191 61.174 83.2182 60.8049 83.2182C60.4358 83.2182 60.1367 82.9191 60.1367 82.55C60.1367 82.181 60.4358 81.8818 60.8049 81.8818C61.174 81.8818 61.4731 82.181 61.4731 82.55Z" fill="white"/>
<path d="M38.6404 80.7568C38.6404 81.3718 38.1417 81.8705 37.5267 81.8705C36.9118 81.8705 36.4131 81.3718 36.4131 80.7568C36.4131 80.1417 36.9118 79.6432 37.5267 79.6432C38.1417 79.6432 38.6404 80.1417 38.6404 80.7568Z" fill="white"/>
<path d="M36.5053 82.55C36.5053 82.9191 36.206 83.2182 35.8371 83.2182C35.4681 83.2182 35.1689 82.9191 35.1689 82.55C35.1689 82.181 35.4681 81.8818 35.8371 81.8818C36.206 81.8818 36.5053 82.181 36.5053 82.55Z" fill="white"/>
</svg>
